<svg width="100" height="106" viewBox="0 0 100 106" fill="none" xmlns="http://www.w3.org/2000/svg">
<rect y="6" width="100" height="100" rx="11" fill="#DBDBDB"/>
<path d="M65.2015 74.78C65.2015 75.6667 64.8748 76.4367 64.2215 77.09C63.6148 77.6967 62.8915 78 62.0515 78H37.9715C37.1315 78 36.3848 77.6967 35.7315 77.09C35.1248 76.4367 34.8215 75.6667 34.8215 74.78V33.9C34.8215 32.9667 35.1248 32.1967 35.7315 31.59C36.3848 30.9833 37.1315 30.68 37.9715 30.68H62.0515C62.8915 30.68 63.6148 30.9833 64.2215 31.59C64.8748 32.1967 65.2015 32.9667 65.2015 33.9V35.79C65.2015 36.6767 64.8748 37.4467 64.2215 38.1C63.6148 38.7067 62.8915 39.01 62.0515 39.01H43.9915C43.4315 39.01 43.1515 39.3133 43.1515 39.92V49.23C43.1515 49.8833 43.4315 50.21 43.9915 50.21H59.5315C60.4648 50.21 61.2348 50.5133 61.8415 51.12C62.4482 51.7267 62.7515 52.4733 62.7515 53.36V55.32C62.7515 56.2067 62.4482 56.9767 61.8415 57.63C61.2348 58.2367 60.4648 58.54 59.5315 58.54H43.9915C43.4315 58.54 43.1515 58.82 43.1515 59.38V68.83C43.1515 69.4367 43.4315 69.74 43.9915 69.74H62.0515C62.8915 69.74 63.6148 70.0433 64.2215 70.65C64.8748 71.2567 65.2015 72.0267 65.2015 72.96V74.78Z" fill="black"/>
</svg>
