<svg width="110" height="61" viewBox="0 0 110 61" fill="none" xmlns="http://www.w3.org/2000/svg">
<path d="M24.5 0.5H0.5V4.5C3.3 4.1 5 6.66667 5.5 8L19.5 60H28.5L41.5 16L62.5 60H81V55.5C77.8 55.9 76.6667 53.3333 75.5 52V38.5L79.5 33.5L94 60H109V55.5C105 55.5 101.667 52.8333 100.5 51.5L86 26L101.5 7C104.5 3.5 106 3.5 107.5 3.5V0.5H87.5V3.5C91.9 3.1 92 6 92 7.5L75.5 27.5V8C76.3 5.6 77.5 4.66667 79 4.5V0.5H60V4.5C64.8 4.5 66.3333 6.83333 66.5 8V47.5L45.5 0.5H39L26.5 47.5C24 36.8333 18.8 14.4 18 10C17.2 5.6 22 4.5 24.5 4.5V0.5Z" fill="black" stroke="black"/>
</svg>
